<svg version="1" xmlns="http://www.w3.org/2000/svg" width="682.667" height="682.667" viewBox="0 0 512.000000 512.000000"><path d="M76.3 54.6c-9.9 2.9-18.8 11.7-21.7 21.5-1.1 3.6-1.4 19.4-1.5 76-.1 39.2-.2 72.1-.2 72.9.1.8 0 4.4 0 8-.1 3.6-.1 7.2 0 8 0 .8.1 8 0 16v87c0 83.5 0 72.6.2 80.4.1 3.5-.2 7-.6 7.7-.5.7-.4 1 .2.6.9-.6 1.9 2.2 2.5 7 .1.7.5 1.3.9 1.3s1 .8 1.3 1.7c.3 1 1.8 3.1 3.3 4.8 1.6 1.6 2.7 3.3 2.6 3.7-.2.5 0 .7.5.6.6-.2 5.9 2.9 7.2 4.2.3.3 1.4.7 2.5.8 1.1.2 2.5.8 3 1.2.6.5 9 .8 18.8.9 9.8 0 18.2.3 18.7.6s1.1.1 1.5-.4c.8-1.4 3.6-.1 2.8 1.3-.3.6-.1.6.8-.2 1.8-1.7 12.3-1.7 11.3 0-.6.9-.3.9.9 0 1-.9 3.5-1.3 6.7-1 2.7.1 5 .1 5-.2 0-.7 17.7-.3 18.9.4.5.4 1.2.2 1.6-.3.3-.6 1.2-.8 2-.5.8.4 1.2 1.1.8 1.8-.4.6.1.5 1-.2.9-.8 3.3-1.2 5.4-1.1 2.1.2 4.5-.1 5.2-.6 1.1-.6 1.3-.4.8 1.1-.7 1.8-.6 1.8.6.2.8-1 1.6-1.5 1.9-1.3.7.7 73.9.7 74.6 0 .3-.2 1.1 0 1.8.6.8.6 1.4.7 1.8 0 .4-.6 1.3-.8 2.1-.5.8.4 1.2 1.1.8 1.8-.4.6.1.5 1-.2.9-.8 3.3-1.2 5.4-1.1 2.1.2 4.5-.1 5.2-.6 1.1-.6 1.3-.4.8 1.1-.6 1.6-.5 1.7.5.4 1.1-1.2 4-1.5 15.5-1.3 7.8.1 14.7.4 15.2.7.5.4 1.2.2 1.6-.3.8-1.4 3.6-.1 2.8 1.3-.3.6-.1.6.8-.1.7-.7 3.7-1.3 6.7-1.3 4 0 5.1.3 4.6 1.3-.6.8-.3.8.9-.1 1-.9 3.5-1.3 6.7-1 2.7.1 5 .1 5-.2 0-.7 17.7-.3 18.9.4.5.4 1.2.2 1.6-.3.3-.6 1.2-.8 2-.5.8.4 1.2 1.1.8 1.8-.4.6.1.5 1-.2.9-.8 3.3-1.2 5.4-1.1 2.1.2 4.5-.1 5.2-.6 1.1-.6 1.3-.4.8 1.1-.7 1.8-.6 1.8.6.2.8-1 1.6-1.5 1.9-1.3.3.3 13.1.5 28.4.4 33.5-.2 34.4-.3 34.4-.9 0-.6 6.5-3.2 7.5-3 .4.1 1.5-1 2.6-2.5 1.2-1.4 2.4-2.3 2.9-2 .5.3 1.2 0 1.6-.6.5-.8.3-.9-.7-.4-.8.5-.5-.1.5-1.4 1.1-1.2 2.6-1.9 3.4-1.6 1.2.4 1.3.3.2-1-.7-.8-.8-1.5-.3-1.5s1.6-1.8 2.3-4c.7-2.1 1.6-3.7 2.1-3.5.4.3.5-.4.2-1.5s.1-2.8.8-3.7c.8-.9 1-1.4.4-1.1-.9.5-1.1-9.2-.5-28.7.1-5.6.2-17 .1-18.5-.1-1.8-.1-15 .1-15.9 0-.3 0-1.1-.2-1.6-.1-.6-.1-9.1 0-19 0-9.9.1-18.6.1-19.3 0-.6-.1-2.3-.1-3.7v-4.3c0-6.2.1-15.5.2-16.1 0-.3-.1-1.1-.2-1.6-.1-.6-.1-7.3 0-15s.1-14.7.1-15.5c-.1-.8 0-4.4 0-8 .1-3.6.1-7.2 0-8-.1-1.8-.1-15 .1-15.9 0-.3 0-1.1-.2-1.6-.1-.6-.1-9.1 0-19 0-9.9.1-18.6.1-19.3 0-.6-.1-2.3-.1-3.7v-4.3c0-6.2.1-15.5.2-16.1 0-.3-.1-1.1-.2-1.6-.1-.6-.1-7.3 0-15s.1-14.7.1-15.5c-.1-.8 0-4.4 0-8 .1-3.6.1-7.2 0-8-.1-1.8-.1-15 .1-15.9 0-.3 0-.8-.2-1.1-.1-.3-.2-8-.3-17.2 0-9.2-.4-16.5-.9-16.2-.4.3-.8-.4-.8-1.6 0-2.1-5.4-10.9-7.4-12.2-.6-.3-2.2-1.6-3.6-2.8-3.4-2.9-6.6-4.5-12-5.8-7-1.6-352.2-1.2-357.7.4zM452 451.4c0 .2.8 1 1.8 1.7 1.5 1.3 1.6 1.2.3-.4s-2.1-2.1-2.1-1.3zM71.6 460.2c.3.5 1 .6 1.5.3 1.3-.9 1.1-1.2-.6-1.2-.8 0-1.2.4-.9.9zM77 462.1c0 .5.5.7 1 .4.6-.3 1-.8 1-1.1 0-.2-.4-.4-1-.4-.5 0-1 .5-1 1.1zM101.5 462c.3.5.8 1 1.1 1 .2 0 .4-.5.4-1 0-.6-.5-1-1.1-1-.5 0-.7.4-.4 1zM109.5 462c.3.5.8 1 1.1 1 .2 0 .4-.5.4-1 0-.6-.5-1-1.1-1-.5 0-.7.4-.4 1z"/><path d="M149.5 462c.3.5.8 1 1.1 1 .2 0 .4-.5.4-1 0-.6-.5-1-1.1-1-.5 0-.7.4-.4 1zM157.5 462c.3.5.8 1 1.1 1 .2 0 .4-.5.4-1 0-.6-.5-1-1.1-1-.5 0-.7.4-.4 1zM293.5 462c.3.5.8 1 1.1 1 .2 0 .4-.5.4-1 0-.6-.5-1-1.1-1-.5 0-.7.4-.4 1zM301.5 462c.3.5.8 1 1.1 1 .2 0 .4-.5.4-1 0-.6-.5-1-1.1-1-.5 0-.7.4-.4 1zM341.5 462c.3.5.8 1 1.1 1 .2 0 .4-.5.4-1 0-.6-.5-1-1.1-1-.5 0-.7.4-.4 1zM349.5 462c.3.5.8 1 1.1 1 .2 0 .4-.5.4-1 0-.6-.5-1-1.1-1-.5 0-.7.4-.4 1zM161.6 463.8c-.3.5.1.9.9.9s1.2-.4.9-.9c-.3-.4-.7-.8-.9-.8-.2 0-.6.4-.9.8zM257.6 463.8c-.3.5.1.9.9.9s1.2-.4.9-.9c-.3-.4-.7-.8-.9-.8-.2 0-.6.4-.9.8zM353.6 463.8c-.3.5.1.9.9.9s1.2-.4.9-.9c-.3-.4-.7-.8-.9-.8-.2 0-.6.4-.9.8zM411.6 464.7c-.6 1.4-.5 1.5.5.6.7-.7 1-1.5.7-1.8-.3-.3-.9.2-1.2 1.2z"/></svg>